<?xml version="1.0" standalone="no"?>
<!DOCTYPE svg PUBLIC "-//W3C//DTD SVG 20010904//EN"
 "http://www.w3.org/TR/2001/REC-SVG-20010904/DTD/svg10.dtd">
<svg version="1.0" xmlns="http://www.w3.org/2000/svg"
 width="1000.000000pt" height="1000.000000pt" viewBox="0 0 1000.000000 1000.000000"
 preserveAspectRatio="xMidYMid meet">
<metadata>
Created by potrace 1.14, written by Peter Selinger 2001-2017
</metadata>
<g transform="translate(0.000000,1000.000000) scale(0.100000,-0.100000)"
fill="#000000" stroke="none">
<path d="M7637 8904 l-867 -565 -168 55 c-365 119 -700 191 -1097 232 -238 25
-762 25 -1000 0 -1131 -119 -2113 -563 -2830 -1281 -355 -354 -610 -730 -785
-1156 -223 -543 -292 -1126 -199 -1687 115 -697 445 -1319 984 -1857 717 -718
1699 -1162 2830 -1281 238 -25 762 -25 1000 0 1131 119 2113 563 2830 1281
355 354 610 730 785 1156 223 543 292 1126 199 1687 -112 678 -431 1292 -947
1824 l-138 141 138 991 c76 545 136 999 135 1008 -1 12 -230 -132 -870 -548z
m333 -376 c0 -7 -41 -293 -92 -636 l-92 -622 144 -138 c171 -163 282 -286 396
-438 247 -329 412 -675 508 -1064 59 -237 71 -344 71 -635 0 -291 -12 -398
-71 -635 -138 -559 -421 -1037 -875 -1475 -601 -580 -1457 -971 -2384 -1089
-385 -49 -815 -49 -1200 0 -663 84 -1300 311 -1830 652 -441 283 -820 661
-1075 1073 -167 269 -279 533 -354 839 -59 237 -71 344 -71 635 0 291 12 398
71 635 138 559 421 1037 875 1475 544 525 1304 900 2129 1049 738 134 1511 92
2215 -121 134 -40 356 -122 484 -177 l83 -36 97 65 c53 36 290 198 526 359
237 162 433 295 438 295 4 1 7 -5 7 -11z"/>
<path d="M3525 6975 c-279 -49 -520 -172 -711 -360 -150 -149 -258 -325 -323
-527 -51 -160 -63 -250 -63 -463 1 -575 136 -982 459 -1385 88 -110 340 -368
518 -529 77 -70 300 -266 495 -436 440 -383 649 -568 903 -803 l198 -184 116
109 c278 260 456 418 1263 1122 261 228 630 590 734 721 323 407 457 811 458
1385 0 213 -12 303 -63 463 -110 344 -354 622 -680 776 -198 94 -390 131 -634
123 -135 -4 -178 -9 -275 -35 -348 -90 -654 -313 -858 -624 -31 -48 -59 -87
-62 -87 -3 0 -31 39 -62 87 -204 311 -510 533 -858 624 -103 27 -133 31 -295
34 -124 2 -205 -1 -260 -11z"/>
</g>
</svg>
